#!OML:ASF X:\für Bonn\!DataBase\2005_08_12_Daniel\c3d\Daniel.ASF
:FULLY-SPECIFIED
:DEGREES
415
root 21.7179 1.3013 0.0785565 -1281.72 261.359 99.4237
lowerback 15.7206 -2.72978 -4.74764
upperback 3.13642 -4.68695 -1.73157
thorax -5.22199 -2.33287 1.77584
lowerneck -11.7977 1.06083 -7.51999
upperneck 2.232 2.30076 2.07411
head 2.7004 1.10337 2.15642
rclavicle 8.98507e-014 -1.0115e-013
rhumerus -409.704 -21.3898 295.265
rradius 11.4873
rwrist 71.1573
rhand -9.014 732.748
rfingers 7.12502
rthumb 16.933 703.466
lclavicle 8.98507e-014 -1.0115e-013
lhumerus -410.452 21.3896 -294.813
lradius 19.1933
lwrist -57.5801
lhand -10.5263 -726.083
lfingers 7.12502
lthumb 15.4768 23.3176
rfemur 8.2326 18.0672 18.3965
rtibia 25.2612
rfoot 353.79 -30.1118
rtoes 25.0782
lfemur 1.3751 -24.7116 -27.9236
ltibia 28.6414
lfoot 19.574 9.45802
ltoes -2.47791
416
root 21.7182 1.30016 0.0780468 -1281.71 261.377 99.479
lowerback 15.6346 -2.72052 -4.74813
upperback 3.14229 -4.66872 -1.73916
thorax -5.17066 -2.32528 1.75898
lowerneck -11.7469 1.04581 -7.59304
upperneck 2.12996 2.28157 2.1486
head 2.65642 1.09781 2.19097
rclavicle -4.77083e-014 3.26752e-015
rhumerus -409.625 -21.2344 295.067
rradius 11.5251
rwrist 70.7203
rhand -9.17677 732.781
rfingers 7.12502
rthumb 16.7763 703.486
lclavicle -4.77083e-014 3.26752e-015
lhumerus -410.447 21.4076 -294.917
lradius 19.1879
lwrist -57.2144
lhand -10.5218 -726.022
lfingers 7.12502
lthumb 15.4811 23.3783
rfemur 8.13103 17.9551 18.3224
rtibia 25.253
rfoot 354.07 -30.0246
rtoes 25.0505
lfemur 1.27056 -24.701 -27.8883
ltibia 28.684
lfoot 19.5765 9.44516
ltoes -2.61757
417
root 21.7163 1.29806 0.0778089 -1281.68 261.386 99.5149
lowerback 15.5636 -2.72631 -4.75957
upperback 3.12919 -4.67285 -1.73483
thorax -5.14446 -2.32719 1.76659
lowerneck -11.6802 1.04334 -7.63966
upperneck 2.04247 2.27707 2.16285
head 2.61399 1.09704 2.201
rclavicle 9.10434e-014 -1.81702e-014
rhumerus -409.554 -21.0678 294.918
rradius 11.5605
rwrist 70.4703
rhand -9.29484 732.775
rfingers 7.12502
rthumb 16.6626 703.47
lclavicle 9.10434e-014 -1.81702e-014
lhumerus -410.539 21.5973 -295.165
lradius 19.1829
lwrist -56.955
lhand -10.4693 -725.987
lfingers 7.12502
lthumb 15.5317 23.4094
rfemur 8.02741 17.8165 18.2332
rtibia 25.2376
rfoot 354.26 -29.9199
rtoes 25.1512
lfemur 1.15361 -24.6892 -27.8488
ltibia 28.7344
lfoot 19.5779 9.43916
ltoes -2.67563
418
root 21.7158 1.29669 0.0780258 -1281.79 261.397 99.6946
lowerback 15.4891 -2.71964 -4.79128
upperback 3.12588 -4.6632 -1.7275
thorax -5.10492 -2.32271 1.78548
lowerneck -11.6254 1.03931 -7.70245
upperneck 1.94539 2.27333 2.17415
head 2.57049 1.09645 2.21312
rclavicle 3.1408e-014 -2.18663e-015
rhumerus -409.477 -20.8737 294.734
rradius 11.6265
rwrist 70.0573
rhand -9.37761 732.775
rfingers 7.12502
rthumb 16.5829 703.463
lclavicle 3.1408e-014 -2.18663e-015
lhumerus -410.578 21.7812 -295.375
lradius 19.1536
lwrist -56.6582
lhand -10.2953 -725.921
lfingers 7.12502
lthumb 15.6993 23.4619
rfemur 7.93238 17.7068 18.134
rtibia 25.2131
rfoot 354.489 -29.8527
rtoes 25.17
lfemur 1.04123 -24.6879 -27.841
ltibia 28.7887
lfoot 19.5716 9.44522
ltoes -2.80321
419
root 21.7147 1.29463 0.0781528 -1281.74 261.398 99.7172
lowerback 15.3999 -2.72547 -4.79808
upperback 3.1209 -4.66498 -1.71907
thorax -5.0603 -2.32429 1.7929
lowerneck -11.583 1.03394 -7.77989
upperneck 1.86018 2.26991 2.20793
head 2.53328 1.09656 2.23606
rclavicle 2.18663e-014 -6.5102e-015
rhumerus -409.393 -20.646 294.507
rradius 11.6935
rwrist 69.6567
rhand -9.47693 732.732
rfingers 7.12502
rthumb 16.4873 703.413
lclavicle 2.18663e-014 -6.5102e-015
lhumerus -410.593 21.8533 -295.488
lradius 19.1695
lwrist -56.1288
lhand -10.0013 -725.721
lfingers 7.12502
lthumb 15.9824 23.6395
rfemur 7.83682 17.6142 18.0584
rtibia 25.1832
rfoot 354.572 -29.7793
rtoes 25.3243
lfemur 0.901631 -24.6607 -27.7845
ltibia 28.8506
lfoot 19.5597 9.4311
ltoes -2.82632
420
root 21.7132 1.29356 0.0774851 -1281.75 261.413 99.7978
lowerback 15.3204 -2.72467 -4.79771
upperback 3.10496 -4.65847 -1.72867
thorax -5.03526 -2.32095 1.77692
lowerneck -11.4914 1.03024 -7.83873
upperneck 1.7721 2.26202 2.25681
head 2.48627 1.09551 2.25938
rclavicle -8.26944e-014 -5.47528e-014
rhumerus -409.344 -20.4291 294.289
rradius 11.7501
rwrist 69.2982
rhand -9.49967 732.694
rfingers 7.12502
rthumb 16.4654 703.373
lclavicle -8.26944e-014 -5.47528e-014
lhumerus -410.641 21.9139 -295.642
lradius 19.1959
lwrist -55.653
lhand -9.6282 -725.495
lfingers 7.12502
lthumb 16.3417 23.8364
rfemur 7.76358 17.594 18.0033
rtibia 25.1457
rfoot 354.538 -29.7301
rtoes 25.5069
lfemur 0.78064 -24.6416 -27.7375
ltibia 28.9138
lfoot 19.5368 9.47259
ltoes -2.82325
421
root 21.7114 1.29143 0.0772659 -1281.71 261.413 99.8439
lowerback 15.226 -2.7283 -4.80193
upperback 3.10448 -4.6569 -1.72777
thorax -4.98409 -2.32127 1.77389
lowerneck -11.473 1.02617 -7.90668
upperneck 1.72117 2.26127 2.29799
head 2.46517 1.09679 2.28444
rclavicle 8.90555e-014 -1.82136e-014
rhumerus -409.231 -20.1366 293.979
rradius 11.8207
rwrist 68.7755
rhand -9.50119 732.62
rfingers 7.12502
rthumb 16.4639 703.299
lclavicle 8.90555e-014 -1.82136e-014
lhumerus -410.631 22.024 -295.776
lradius 19.1828
lwrist -55.1284
lhand -9.17748 -725.17
lfingers 7.12502
lthumb 16.7756 24.1252
rfemur 7.67143 17.5225 17.9318
rtibia 25.1082
rfoot 354.517 -29.6764
rtoes 25.7331
lfemur 0.638569 -24.6085 -27.6828
ltibia 28.979
lfoot 19.5318 9.47457
ltoes -2.82658
422
root 21.7109 1.28984 0.0772612 -1281.7 261.428 99.9006
lowerback 15.1488 -2.72712 -4.80387
upperback 3.09425 -4.64979 -1.72579
thorax -4.95303 -2.31796 1.7712
lowerneck -11.4427 1.01833 -7.97868
upperneck 1.67179 2.2552 2.34164
head 2.44271 1.09551 2.3106
rclavicle -1.64196e-013 1.89796e-013
rhumerus -409.163 -19.9095 293.746
rradius 11.8787
rwrist 68.3972
rhand -9.51249 732.524
rfingers 7.12502
rthumb 16.4531 703.201
lclavicle -1.64196e-013 1.89796e-013
lhumerus -410.66 22.2206 -295.998
lradius 19.1361
lwrist -54.7109
lhand -8.68992 -724.795
lfingers 7.12502
lthumb 17.2449 24.4598
rfemur 7.59786 17.4566 17.8598
rtibia 25.056
rfoot 354.528 -29.6322
rtoes 25.871
lfemur 0.501683 -24.561 -27.6234
ltibia 29.0525
lfoot 19.5118 9.504
ltoes -2.87774
423
root 21.7083 1.28783 0.077508 -1281.77 261.434 100.038
lowerback 15.0922 -2.73132 -4.825
upperback 3.07559 -4.65413 -1.71792
thorax -4.93936 -2.31931 1.78903
lowerneck -11.401 1.02129 -8.08636
upperneck 1.63757 2.26695 2.39488
head 2.42208 1.1027 2.34757
rclavicle -5.20816e-014 5.38769e-014
rhumerus -409.127 -19.7415 293.632
rradius 11.9282
rwrist 68.1414
rhand -9.47695 732.484
rfingers 7.12502
rthumb 16.4873 703.165
lclavicle -5.20816e-014 5.38769e-014
lhumerus -410.703 22.3725 -296.165
lradius 19.0885
lwrist -54.2558
lhand -8.25397 -724.391
lfingers 7.12502
lthumb 17.6645 24.8263
rfemur 7.53682 17.4063 17.7885
rtibia 25.0145
rfoot 354.541 -29.5902
rtoes 26.0486
lfemur 0.393788 -24.5748 -27.6004
ltibia 29.1172
lfoot 19.4436 9.61546
ltoes -2.65679
424
root 21.7071 1.28618 0.0775449 -1281.66 261.446 100.001
lowerback 15.0077 -2.73816 -4.80793
upperback 3.07151 -4.65433 -1.71858
thorax -4.8991 -2.32038 1.77362
lowerneck -11.3598 1.02392 -8.13383
upperneck 1.56335 2.27029 2.428
head 2.38874 1.10634 2.36541
rclavicle -5.56597e-015 -6.82018e-014
rhumerus -409.105 -19.685 293.554
rradius 11.977
rwrist 67.9956
rhand -9.50048 732.412
rfingers 7.12502
rthumb 16.4646 703.091
lclavicle -5.56597e-015 -6.82018e-014
lhumerus -410.726 22.6209 -296.443
lradius 19.0073
lwrist -53.9226
lhand -7.84941 -724.044
lfingers 7.12502
lthumb 18.0537 25.1386
rfemur 7.46958 17.3986 17.7563
rtibia 24.9677
rfoot 354.377 -29.5747
rtoes 26.34
lfemur 0.262582 -24.5353 -27.5288
ltibia 29.1817
lfoot 19.4349 9.6276
ltoes -2.66022
425
root 21.7052 1.28438 0.0767157 -1281.74 261.451 100.131
lowerback 14.9563 -2.73468 -4.8311
upperback 3.05888 -4.64955 -1.71955
thorax -4.88303 -2.31752 1.78179
lowerneck -11.3547 1.01663 -8.21009
upperneck 1.57225 2.26809 2.48849
head 2.39051 1.10662 2.40003
rclavicle -3.4191e-014 9.88395e-014
rhumerus -409.073 -19.5202 293.402
rradius 12.0309
rwrist 67.7137
rhand -9.47572 732.349
rfingers 7.12502
rthumb 16.4885 703.03
lclavicle -3.4191e-014 9.88395e-014
lhumerus -410.761 22.8287 -296.681
lradius 18.9326
lwrist -53.596
lhand -7.48224 -723.726
lfingers 7.12502
lthumb 18.407 25.4227
rfemur 7.43011 17.3848 17.7052
rtibia 24.927
rfoot 354.182 -29.5587
rtoes 26.6684
lfemur 0.159185 -24.4673 -27.4806
ltibia 29.2392
lfoot 19.4193 9.68672
ltoes -2.46345
426
root 21.7035 1.28334 0.0767376 -1281.63 261.464 100.087
lowerback 14.8809 -2.73682 -4.81749
upperback 3.05956 -4.64446 -1.71553
thorax -4.84227 -2.31612 1.77268
lowerneck -11.3529 1.01632 -8.26626
upperneck 1.54218 2.27276 2.52114
head 2.3794 1.11001 2.42114
rclavicle 2.34566e-014 1.24116e-014
rhumerus -409.057 -19.5144 293.384
rradius 12.0629
rwrist 67.6632
rhand -9.51739 732.318
rfingers 7.12502
rthumb 16.4483 702.996
lclavicle 2.34566e-014 1.24116e-014
lhumerus -410.749 22.995 -296.861
lradius 18.8386
lwrist -53.2323
lhand -7.26761 -723.472
lfingers 7.12502
lthumb 18.6134 25.6571
rfemur 7.36648 17.2986 17.6483
rtibia 24.8847
rfoot 354.2 -29.528
rtoes 26.8549
lfemur 0.0587338 -24.4498 -27.418
ltibia 29.2929
lfoot 19.3476 9.79685
ltoes -2.33092
